<svg width="128" height="128" viewBox="0 0 128 128" fill="none" xmlns="http://www.w3.org/2000/svg">
<g clip-path="url(#clip0_2014_74)">
<path d="M102.931 47.468L119.997 64.5347L112.531 72.0013L95.4641 54.9347C93.5974 56.0013 91.5974 56.8902 89.4641 57.6013C87.3307 58.3124 85.0641 58.668 82.6641 58.668C75.9974 58.668 70.3316 56.3355 65.6667 51.6707C61.0018 47.0058 58.6676 41.3382 58.6641 34.668C58.6605 27.9978 60.9947 22.332 65.6667 17.6707C70.3387 13.0093 76.0045 10.6751 82.6641 10.668C89.3236 10.6609 94.9912 12.9951 99.6667 17.6707C104.342 22.3462 106.675 28.012 106.664 34.668C106.664 37.068 106.309 39.3347 105.597 41.468C104.886 43.6013 103.997 45.6013 102.931 47.468ZM82.6641 48.0013C86.3974 48.0013 89.553 46.7124 92.1307 44.1346C94.7085 41.5569 95.9974 38.4013 95.9974 34.668C95.9974 30.9347 94.7085 27.7791 92.1307 25.2013C89.553 22.6235 86.3974 21.3347 82.6641 21.3347C78.9307 21.3347 75.7752 22.6235 73.1974 25.2013C70.6196 27.7791 69.3307 30.9347 69.3307 34.668C69.3307 38.4013 70.6196 41.5569 73.1974 44.1346C75.7752 46.7124 78.9307 48.0013 82.6641 48.0013ZM21.3307 117.335C18.3974 117.335 15.8872 116.291 13.8001 114.204C11.713 112.117 10.6676 109.605 10.6641 106.668V32.0013C10.6641 29.068 11.7094 26.5578 13.8001 24.4707C15.8907 22.3835 18.401 21.3382 21.3307 21.3347H50.6641C49.6863 23.5569 49.0196 25.8467 48.6641 28.204C48.3085 30.5613 48.1307 32.8938 48.1307 35.2013C48.1307 44.8902 51.553 52.9791 58.3974 59.468C65.2418 65.9569 73.3752 69.2013 82.7974 69.2013C84.4863 69.2013 86.1752 69.0893 87.8641 68.8653C89.553 68.6413 91.2863 68.2644 93.0641 67.7347L106.664 81.3347V106.668C106.664 109.601 105.621 112.113 103.533 114.204C101.446 116.295 98.9343 117.338 95.9974 117.335H21.3307Z" fill="#A2FFB7"/>
<path d="M17.4024 91V73.7775H22.1755L30.9344 84.2586H28.72V73.7775H34.3789V91H29.6058L20.8469 80.5189H23.0612V91H17.4024ZM43.5981 91.3937C42.1547 91.3937 40.7605 91.2296 39.4155 90.9016C38.0705 90.5735 36.9633 90.1471 36.094 89.6222L37.9639 85.3904C38.784 85.8661 39.6943 86.2515 40.6949 86.5468C41.7118 86.8256 42.6959 86.965 43.6473 86.965C44.205 86.965 44.6396 86.9322 44.9513 86.8666C45.2793 86.7846 45.5171 86.678 45.6648 86.5468C45.8124 86.3991 45.8862 86.2269 45.8862 86.0301C45.8862 85.7184 45.714 85.4724 45.3695 85.292C45.0251 85.1115 44.5658 84.9639 43.9917 84.8491C43.434 84.7179 42.819 84.5867 42.1465 84.4555C41.474 84.3078 40.7933 84.1192 40.1044 83.8896C39.4319 83.6599 38.8086 83.3565 38.2345 82.9792C37.6768 82.602 37.2258 82.1099 36.8813 81.503C36.5369 80.8797 36.3646 80.1088 36.3646 79.1903C36.3646 78.1241 36.6599 77.1564 37.2504 76.2871C37.8572 75.4013 38.7512 74.696 39.9321 74.1712C41.1295 73.6463 42.6139 73.3839 44.3854 73.3839C45.55 73.3839 46.6981 73.5069 47.8299 73.7529C48.9616 73.9989 49.9786 74.3762 50.8807 74.8847L49.1339 79.0919C48.2809 78.6654 47.4526 78.3456 46.6489 78.1323C45.8616 77.9191 45.0907 77.8125 44.3362 77.8125C43.7785 77.8125 43.3356 77.8617 43.0076 77.9601C42.6795 78.0585 42.4417 78.1897 42.2941 78.3538C42.1629 78.5178 42.0973 78.6982 42.0973 78.8951C42.0973 79.1903 42.2695 79.4281 42.6139 79.6086C42.9584 79.7726 43.4094 79.912 43.9671 80.0268C44.5412 80.1416 45.1645 80.2646 45.837 80.3959C46.5259 80.5271 47.2066 80.7075 47.8791 80.9371C48.5516 81.1668 49.1667 81.4702 49.7244 81.8475C50.2984 82.2247 50.7577 82.7168 51.1022 83.3237C51.4466 83.9306 51.6188 84.6851 51.6188 85.5872C51.6188 86.637 51.3154 87.6047 50.7085 88.4904C50.118 89.3598 49.2323 90.0651 48.0513 90.6063C46.8703 91.1312 45.3859 91.3937 43.5981 91.3937ZM26.3089 111.394C24.9311 111.394 23.6517 111.18 22.4707 110.754C21.3062 110.311 20.2892 109.688 19.4199 108.884C18.567 108.08 17.9027 107.129 17.427 106.03C16.9513 104.931 16.7135 103.717 16.7135 102.389C16.7135 101.06 16.9513 99.8464 17.427 98.7474C17.9027 97.6485 18.567 96.6971 19.4199 95.8934C20.2892 95.0897 21.3062 94.4746 22.4707 94.0482C23.6517 93.6053 24.9311 93.3839 26.3089 93.3839C27.9983 93.3839 29.4909 93.6791 30.7867 94.2696C32.0989 94.8601 33.1815 95.713 34.0344 96.8284L30.3685 100.101C29.86 99.4609 29.2941 98.9689 28.6708 98.6244C28.0639 98.2636 27.375 98.0831 26.6041 98.0831C25.9972 98.0831 25.4478 98.1815 24.9557 98.3784C24.4636 98.5752 24.0372 98.8622 23.6763 99.2395C23.3319 99.6168 23.0612 100.076 22.8644 100.617C22.6676 101.142 22.5691 101.733 22.5691 102.389C22.5691 103.045 22.6676 103.644 22.8644 104.185C23.0612 104.71 23.3319 105.161 23.6763 105.538C24.0372 105.915 24.4636 106.202 24.9557 106.399C25.4478 106.596 25.9972 106.694 26.6041 106.694C27.375 106.694 28.0639 106.522 28.6708 106.178C29.2941 105.817 29.86 105.317 30.3685 104.677L34.0344 107.949C33.1815 109.048 32.0989 109.901 30.7867 110.508C29.4909 111.098 27.9983 111.394 26.3089 111.394Z" fill="black"/>
</g>
<defs>
<clipPath id="clip0_2014_74">
<rect width="109.333" height="106.667" fill="white" transform="translate(10.6641 10.668)"/>
</clipPath>
</defs>
</svg>
