<svg width="112" height="112" viewBox="0 0 112 112" fill="none" xmlns="http://www.w3.org/2000/svg">
<g clip-path="url(#clip0_2014_74)">
<path d="M90.0654 41.534L104.999 56.4673L98.4654 63.0007L83.532 48.0673C81.8987 49.0007 80.1487 49.7784 78.282 50.4007C76.4154 51.0229 74.432 51.334 72.332 51.334C66.4987 51.334 61.5411 49.2931 57.4594 45.2113C53.3776 41.1296 51.3351 36.1704 51.332 30.334C51.3289 24.4976 53.3714 19.54 57.4594 15.4613C61.5474 11.3827 66.5049 9.34022 72.332 9.334C78.1591 9.32778 83.1183 11.3702 87.2094 15.4613C91.3005 19.5524 93.3414 24.51 93.332 30.334C93.332 32.434 93.0209 34.4173 92.3987 36.284C91.7765 38.1507 90.9987 39.9007 90.0654 41.534ZM72.332 42.0007C75.5987 42.0007 78.3598 40.8729 80.6154 38.6173C82.8709 36.3618 83.9987 33.6007 83.9987 30.334C83.9987 27.0673 82.8709 24.3062 80.6154 22.0507C78.3598 19.7951 75.5987 18.6673 72.332 18.6673C69.0654 18.6673 66.3043 19.7951 64.0487 22.0507C61.7931 24.3062 60.6654 27.0673 60.6654 30.334C60.6654 33.6007 61.7931 36.3618 64.0487 38.6173C66.3043 40.8729 69.0654 42.0007 72.332 42.0007ZM18.6654 102.667C16.0987 102.667 13.9023 101.754 12.076 99.928C10.2498 98.1018 9.33514 95.9038 9.33203 93.334V28.0007C9.33203 25.434 10.2467 23.2376 12.076 21.4113C13.9054 19.5851 16.1018 18.6704 18.6654 18.6673H44.332C43.4765 20.6118 42.8931 22.6153 42.582 24.678C42.2709 26.7407 42.1154 28.7816 42.1154 30.8007C42.1154 39.2784 45.1098 46.3562 51.0987 52.034C57.0876 57.7118 64.2043 60.5507 72.4487 60.5507C73.9265 60.5507 75.4043 60.4527 76.882 60.2567C78.3598 60.0607 79.8765 59.7309 81.432 59.2673L93.332 71.1673V93.334C93.332 95.9007 92.4189 98.0987 90.5927 99.928C88.7665 101.757 86.5685 102.67 83.9987 102.667H18.6654Z" fill="white"/>
<path d="M15.2271 80V64.9303H19.4036L27.0676 74.1013H25.13V64.9303H30.0815V80H25.905L18.241 70.829H20.1786V80H15.2271ZM38.1483 80.3444C36.8853 80.3444 35.6654 80.2009 34.4885 79.9139C33.3117 79.6268 32.3429 79.2537 31.5822 78.7944L33.2184 75.0916C33.936 75.5078 34.7325 75.8451 35.608 76.1034C36.4978 76.3474 37.359 76.4694 38.1914 76.4694C38.6793 76.4694 39.0597 76.4407 39.3324 76.3833C39.6194 76.3115 39.8275 76.2182 39.9567 76.1034C40.0858 75.9742 40.1504 75.8235 40.1504 75.6513C40.1504 75.3786 39.9997 75.1634 39.6983 75.0055C39.3969 74.8476 38.9951 74.7184 38.4928 74.618C38.0048 74.5032 37.4666 74.3883 36.8782 74.2735C36.2897 74.1444 35.6941 73.9793 35.0913 73.7784C34.5029 73.5774 33.9575 73.3119 33.4552 72.9818C32.9672 72.6517 32.5725 72.2212 32.2711 71.6901C31.9697 71.1448 31.8191 70.4702 31.8191 69.6665C31.8191 68.7336 32.0774 67.8869 32.5941 67.1262C33.1251 66.3512 33.9073 65.734 34.9406 65.2748C35.9883 64.8155 37.2872 64.5859 38.8372 64.5859C39.8562 64.5859 40.8609 64.6935 41.8511 64.9088C42.8414 65.1241 43.7313 65.4542 44.5206 65.8991L42.9921 69.5804C42.2458 69.2072 41.5211 68.9274 40.8178 68.7408C40.1289 68.5542 39.4544 68.4609 38.7942 68.4609C38.3062 68.4609 37.9187 68.504 37.6316 68.5901C37.3446 68.6762 37.1365 68.791 37.0073 68.9346C36.8925 69.0781 36.8351 69.2359 36.8351 69.4082C36.8351 69.6665 36.9858 69.8746 37.2872 70.0325C37.5886 70.176 37.9833 70.298 38.4712 70.3985C38.9736 70.4989 39.5189 70.6066 40.1074 70.7214C40.7102 70.8362 41.3058 70.9941 41.8942 71.195C42.4826 71.3959 43.0208 71.6614 43.5088 71.9915C44.0111 72.3216 44.413 72.7522 44.7144 73.2832C45.0158 73.8143 45.1665 74.4745 45.1665 75.2638C45.1665 76.1823 44.901 77.0291 44.3699 77.8041C43.8533 78.5648 43.0783 79.1819 42.0449 79.6556C41.0116 80.1148 39.7127 80.3444 38.1483 80.3444ZM23.0203 98.3444C21.8147 98.3444 20.6952 98.1579 19.6619 97.7847C18.6429 97.3972 17.7531 96.8518 16.9924 96.1486C16.2461 95.4453 15.6648 94.6129 15.2486 93.6513C14.8324 92.6897 14.6243 91.6277 14.6243 90.4652C14.6243 89.3026 14.8324 88.2406 15.2486 87.279C15.6648 86.3174 16.2461 85.485 16.9924 84.7817C17.7531 84.0785 18.6429 83.5403 19.6619 83.1671C20.6952 82.7796 21.8147 82.5859 23.0203 82.5859C24.4985 82.5859 25.8046 82.8442 26.9384 83.3609C28.0866 83.8776 29.0338 84.6239 29.7801 85.5998L26.5724 88.463C26.1275 87.9033 25.6324 87.4728 25.087 87.1714C24.5559 86.8556 23.9532 86.6977 23.2786 86.6977C22.7476 86.6977 22.2668 86.7839 21.8362 86.9561C21.4057 87.1283 21.0325 87.3795 20.7168 87.7096C20.4154 88.0397 20.1786 88.4415 20.0063 88.9151C19.8341 89.3744 19.748 89.8911 19.748 90.4652C19.748 91.0392 19.8341 91.5631 20.0063 92.0367C20.1786 92.496 20.4154 92.8907 20.7168 93.2208C21.0325 93.5509 21.4057 93.802 21.8362 93.9742C22.2668 94.1465 22.7476 94.2326 23.2786 94.2326C23.9532 94.2326 24.5559 94.0819 25.087 93.7805C25.6324 93.4647 26.1275 93.027 26.5724 92.4673L29.7801 95.3305C29.0338 96.2921 28.0866 97.0384 26.9384 97.5694C25.8046 98.0861 24.4985 98.3444 23.0203 98.3444Z" fill="black"/>
</g>
<defs>
<clipPath id="clip0_2014_74">
<rect width="95.6667" height="93.3334" fill="white" transform="translate(9.33203 9.33398)"/>
</clipPath>
</defs>
</svg>
